#N canvas 422 273 838 301 12;
#X msg 38 82 60 100 1000;
#X obj 38 114 makenote 10 0;
#X floatatom 38 159 5 0 0 0 - - -;
#X floatatom 126 159 5 0 0 0 - - -;
#X obj 38 58 bng 15 250 50 0 empty empty empty 17 7 0 10 -257985 -1
-1;
#X obj 346 57 tgl 15 0 empty empty empty 17 7 0 10 -4034 -1 -1 0 1
;
#X msg 385 112 100;
#X obj 346 83 sel 0 1;
#X msg 346 111 0;
#X msg 346 203 60;
#X floatatom 346 143 5 0 0 0 - - -;
#X obj 346 170 t b f;
#X text 34 25 # the duraion time is defined in advance.;
#X text 344 27 # the duration time is to be determined in real time
play.;
#X obj 38 234 noteout 1;
#X obj 346 234 noteout 1;
#X connect 0 0 1 0;
#X connect 1 0 2 0;
#X connect 1 1 3 0;
#X connect 2 0 14 0;
#X connect 3 0 14 1;
#X connect 4 0 0 0;
#X connect 5 0 7 0;
#X connect 6 0 10 0;
#X connect 7 0 8 0;
#X connect 7 1 6 0;
#X connect 8 0 10 0;
#X connect 9 0 15 0;
#X connect 10 0 11 0;
#X connect 11 0 9 0;
#X connect 11 1 15 1;
